<svg width="943" height="164" viewBox="0 0 943 164" fill="none" xmlns="http://www.w3.org/2000/svg">
<path d="M252.705 133.109C225.074 133.109 205.847 112.6 205.847 82.4063C205.847 52.2124 224.505 31.7032 253.417 31.7032C275.493 31.7032 292.156 44.5214 295.574 65.0306H282.329C278.911 51.2154 268.229 43.0972 253.132 43.0972C232.196 43.0972 218.523 59.3336 218.523 82.4063C218.523 105.479 232.196 121.715 252.847 121.715C271.22 121.715 284.465 110.749 284.465 93.0882V89.67H254.556V78.276H296.571V132.255H285.89L285.035 117.728C280.477 124.991 269.796 133.109 252.705 133.109ZM339.166 133.109C317.375 133.109 303.133 118.155 303.133 95.9367C303.133 73.8609 317.091 58.7639 337.6 58.7639C358.109 58.7639 371.497 71.7245 372.066 93.2306C372.066 94.7973 371.924 96.5064 371.782 98.2154H315.381V99.2124C315.809 113.028 324.497 122.712 338.312 122.712C348.566 122.712 356.542 117.3 358.963 107.9H370.785C367.936 122.428 355.972 133.109 339.166 133.109ZM316.094 88.5306H359.533C358.394 75.9972 349.848 69.0184 337.742 69.0184C327.06 69.0184 317.233 76.7094 316.094 88.5306ZM412.454 58.7639C428.833 58.7639 441.793 67.7366 441.793 91.8063V132.255H430.114V92.5185C430.114 77.4215 423.136 69.4457 410.46 69.4457C396.787 69.4457 388.526 79.5578 388.526 95.9367V132.255H376.848V59.6184H386.96L388.526 69.4457C392.799 63.8912 400.205 58.7639 412.454 58.7639ZM480.773 133.109C458.982 133.109 444.74 118.155 444.74 95.9367C444.74 73.8609 458.697 58.7639 479.206 58.7639C499.715 58.7639 513.103 71.7245 513.673 93.2306C513.673 94.7973 513.531 96.5064 513.388 98.2154H456.988V99.2124C457.415 113.028 466.103 122.712 479.918 122.712C490.173 122.712 498.149 117.3 500.57 107.9H512.391C509.543 122.428 497.579 133.109 480.773 133.109ZM457.7 88.5306H501.14C500 75.9972 491.455 69.0184 479.349 69.0184C468.667 69.0184 458.84 76.7094 457.7 88.5306ZM515.185 108.328H527.149C527.576 116.873 535.125 123.14 547.231 123.14C557.485 123.14 564.749 118.725 564.749 112.031C564.749 102.915 556.773 102.203 545.949 100.922C529.712 98.9276 516.752 95.6518 516.752 80.5548C516.752 67.3093 528.858 58.6215 545.237 58.7639C561.758 58.9063 573.722 66.5972 574.861 81.6942H562.897C562.043 74.2881 555.206 68.7336 545.237 68.7336C535.125 68.7336 528.288 73.0063 528.288 79.7003C528.288 87.676 535.979 88.673 546.518 89.9548C563.04 91.9488 576.285 95.0821 576.285 111.176C576.285 124.706 563.325 133.109 547.231 133.109C528.431 133.109 515.47 124.279 515.185 108.328ZM600.113 132.682L571.771 59.6184H584.162L606.523 117.585L628.171 59.6184H640.562L607.092 144.503C602.535 156.182 599.829 160.74 589.574 160.74H575.616V150.058H586.013C592.707 150.058 593.847 148.349 596.553 141.512L600.113 132.682ZM636.485 108.328H648.449C648.876 116.873 656.425 123.14 668.531 123.14C678.785 123.14 686.049 118.725 686.049 112.031C686.049 102.915 678.073 102.203 667.249 100.922C651.012 98.9276 638.052 95.6518 638.052 80.5548C638.052 67.3093 650.158 58.6215 666.537 58.7639C683.058 58.9063 695.022 66.5972 696.161 81.6942H684.197C683.343 74.2881 676.506 68.7336 666.537 68.7336C656.425 68.7336 649.588 73.0063 649.588 79.7003C649.588 87.676 657.279 88.673 667.818 89.9548C684.34 91.9488 697.585 95.0821 697.585 111.176C697.585 124.706 684.625 133.109 668.531 133.109C649.731 133.109 636.77 124.279 636.485 108.328ZM795.149 82.4063C795.149 111.746 775.637 133.109 747.58 133.109C719.522 133.109 700.01 111.746 700.01 82.4063C700.01 53.0669 719.522 31.7032 747.58 31.7032C775.637 31.7032 795.149 53.0669 795.149 82.4063ZM712.686 82.4063C712.686 105.337 726.786 121.715 747.58 121.715C768.373 121.715 782.473 105.337 782.473 82.4063C782.473 59.476 768.373 43.0972 747.58 43.0972C726.786 43.0972 712.686 59.476 712.686 82.4063ZM836.161 58.7639C852.54 58.7639 865.5 67.7366 865.5 91.8063V132.255H853.821V92.5185C853.821 77.4215 846.843 69.4457 834.167 69.4457C820.494 69.4457 812.233 79.5578 812.233 95.9367V132.255H800.555V59.6184H810.667L812.233 69.4457C816.506 63.8912 823.912 58.7639 836.161 58.7639ZM904.48 133.109C882.689 133.109 868.447 118.155 868.447 95.9367C868.447 73.8609 882.404 58.7639 902.913 58.7639C923.423 58.7639 936.81 71.7245 937.38 93.2306C937.38 94.7973 937.238 96.5064 937.095 98.2154H880.695V99.2124C881.122 113.028 889.81 122.712 903.626 122.712C913.88 122.712 921.856 117.3 924.277 107.9H936.098C933.25 122.428 921.286 133.109 904.48 133.109ZM881.407 88.5306H924.847C923.707 75.9972 915.162 69.0184 903.056 69.0184C892.374 69.0184 882.547 76.7094 881.407 88.5306Z" fill="#023729"/>
<mask id="mask0_89_1805" style="mask-type:alpha" maskUnits="userSpaceOnUse" x="0" y="0" width="164" height="164">
<circle cx="81.7632" cy="81.7632" r="81.7632" fill="#038362"/>
</mask>
<g mask="url(#mask0_89_1805)">
<path d="M143.325 337.479C131.298 337.479 118.562 329.697 105.119 314.131C92.3842 297.858 80.7102 272.741 70.0974 238.781C60.1922 204.112 53.117 159.185 48.8719 103.999L-41.3364 279.109C-62.5619 275.572 -82.3724 270.265 -100.768 263.19C-118.456 255.407 -132.96 246.917 -144.28 237.719C-154.893 228.522 -160.199 219.678 -160.199 211.187C-160.199 198.452 -153.832 183.948 -141.096 167.675C-128.361 150.695 -107.489 133.007 -78.4811 114.611C-49.4729 95.5085 -10.9132 76.7594 37.1979 58.3639L-160.199 25.4644C-161.614 18.3892 -162.676 10.9603 -163.383 3.17764C-164.091 -5.31258 -164.444 -13.0953 -164.444 -20.1704C-164.444 -49.8861 -160.907 -72.1729 -153.832 -87.0308C-146.049 -101.889 -136.144 -109.317 -124.116 -109.317C-100.768 -109.317 -77.4198 -101.889 -54.0717 -87.0308C-30.0162 -72.8804 -7.0219 -54.8387 14.9111 -32.9057C37.5517 -10.9727 57.7159 10.6066 75.4038 31.8321L42.5043 -165.565C59.4847 -173.348 76.4651 -179.715 93.4455 -184.668C111.133 -190.328 126.345 -193.158 139.08 -193.158C158.183 -193.158 170.919 -189.974 177.286 -183.607C184.361 -177.239 187.899 -164.504 187.899 -145.401C187.899 -130.543 186.13 -113.563 182.593 -94.4596C179.055 -76.0642 171.98 -54.1312 161.367 -28.6606C150.754 -3.89754 134.835 25.8182 113.61 60.4865L289.781 -31.8444C301.809 -20.5242 312.422 -7.78889 321.62 6.36142C330.817 19.8042 337.892 32.8933 342.845 45.6286C348.505 58.3639 351.335 69.3304 351.335 78.5281C351.335 89.8484 343.553 99.3999 327.987 107.183C313.129 114.965 291.196 118.857 262.188 118.857C249.453 118.857 235.656 119.21 220.798 119.918C206.648 119.918 189.668 119.21 169.857 117.795C150.047 115.673 125.637 111.074 96.6293 103.999L237.779 244.087C229.289 261.775 219.03 277.694 207.002 291.844C195.682 305.995 184.361 317.315 173.041 325.805C161.721 333.588 151.816 337.479 143.325 337.479Z" fill="#023729"/>
</g>
</svg>
