<svg width="164" height="164" viewBox="0 0 164 164" fill="none" xmlns="http://www.w3.org/2000/svg">
  <rect width="164" height="164" rx="40" fill="#023729"/>
  <mask id="m" style="mask-type:alpha" maskUnits="userSpaceOnUse" x="0" y="0" width="164" height="164">
    <circle cx="81.7632" cy="81.7632" r="81.7632" fill="#fff"/>
  </mask>
  <g mask="url(#m)">
    <path d="M143.325 337.479C131.298 337.479 118.562 329.697 105.119 314.131C92.3842 297.858 80.7102 272.741 70.0974 238.781C60.1922 204.112 53.117 159.185 48.8719 103.999L-41.3364 279.109C-62.5619 275.572 -82.3724 270.265 -100.768 263.19C-118.456 255.407 -132.96 246.917 -144.28 237.719C-154.893 228.522 -160.199 219.678 -160.199 211.187C-160.199 198.452 -153.832 183.948 -141.096 167.675C-128.361 150.695 -107.489 133.007 -78.4811 114.611C-49.4729 95.5085 -10.9132 76.7594 37.1979 58.3639L-160.199 25.4644C-161.614 18.3892 -162.676 10.9603 -163.383 3.17764C-164.091 -5.31258 -164.444 -13.0953 -164.444 -20.1704C-164.444 -49.8861 -160.907 -72.1729 -153.832 -87.0308C-146.049 -101.889 -136.144 -109.317 -124.116 -109.317C-100.768 -109.317 -77.4198 -101.889 -54.0717 -87.0308C-30.0162 -72.8804 -7.0219 -54.8387 14.9111 -32.9057C37.5517 -10.9727 57.7159 10.6066 75.4038 31.8321L42.5043 -165.565C59.4847 -173.348 76.4651 -179.715 93.4455 -184.668C111.133 -190.328 126.345 -193.158 139.08 -193.158C158.183 -193.158 170.919 -189.974 177.286 -183.607C184.361 -177.239 187.899 -164.504 187.899 -145.401C187.899 -130.543 186.13 -113.563 182.593 -94.4596C179.055 -76.0642 171.98 -54.1312 161.367 -28.6606C150.754 -3.89754 134.835 25.8182 113.61 60.4865L289.781 -31.8444C301.809 -20.5242 312.422 -7.78889 321.62 6.36142C330.817 19.8042 337.892 32.8933 342.845 45.6286C348.505 58.3639 351.335 69.3304 351.335 78.5281C351.335 89.8484 343.553 99.3999 327.987 107.183C313.129 114.965 291.196 118.857 262.188 118.857C249.453 118.857 235.656 119.21 220.798 119.918C206.648 119.918 189.668 119.21 169.857 117.795C150.047 115.673 125.637 111.074 96.6293 103.999L237.779 244.087C229.289 261.775 219.03 277.694 207.002 291.844C195.682 305.995 184.361 317.315 173.041 325.805C161.721 333.588 151.816 337.479 143.325 337.479Z" fill="#A6E64D"/>
  </g>
</svg>
